<mxfile host="app.diagrams.net" modified="2021-10-14T06:34:02.351Z" agent="5.0 (Windows NT 10.0; Win64; x64) AppleWebKit/537.36 (KHTML, like Gecko) Chrome/94.0.4606.81 Safari/537.36 Edg/94.0.992.47" etag="sIO0OXOKwwKfI4hIu_0P" version="15.5.2" type="github">
  <diagram name="Page-1" id="13e1069c-82ec-6db2-03f1-153e76fe0fe0">
    <mxGraphModel dx="1422" dy="786" grid="1" gridSize="10" guides="1" tooltips="1" connect="1" arrows="1" fold="1" page="1" pageScale="1" pageWidth="1100" pageHeight="850" math="0" shadow="0">
      <root>
        <mxCell id="0" />
        <mxCell id="1" parent="0" />
        <mxCell id="7baba1c4bc27f4b0-2" value="flink-jdbc-driver" style="shape=umlLifeline;perimeter=lifelinePerimeter;whiteSpace=wrap;html=1;container=1;collapsible=0;recursiveResize=0;outlineConnect=0;shadow=0;comic=0;labelBackgroundColor=none;strokeWidth=1;fontFamily=Verdana;fontSize=12;align=center;rounded=1;" parent="1" vertex="1">
          <mxGeometry x="360" y="80" width="100" height="360" as="geometry" />
        </mxCell>
        <mxCell id="7baba1c4bc27f4b0-10" value="" style="html=1;points=[];perimeter=orthogonalPerimeter;shadow=0;comic=0;labelBackgroundColor=none;strokeWidth=1;fontFamily=Verdana;fontSize=12;align=center;rounded=1;" parent="7baba1c4bc27f4b0-2" vertex="1">
          <mxGeometry x="45" y="100" width="10" height="230" as="geometry" />
        </mxCell>
        <mxCell id="7baba1c4bc27f4b0-3" value="flink-sql-gateway" style="shape=umlLifeline;perimeter=lifelinePerimeter;whiteSpace=wrap;html=1;container=1;collapsible=0;recursiveResize=0;outlineConnect=0;shadow=0;comic=0;labelBackgroundColor=none;strokeWidth=1;fontFamily=Verdana;fontSize=12;align=center;rounded=1;" parent="1" vertex="1">
          <mxGeometry x="621" y="80" width="100" height="360" as="geometry" />
        </mxCell>
        <mxCell id="7baba1c4bc27f4b0-13" value="" style="html=1;points=[];perimeter=orthogonalPerimeter;shadow=0;comic=0;labelBackgroundColor=none;strokeWidth=1;fontFamily=Verdana;fontSize=12;align=center;rounded=1;" parent="7baba1c4bc27f4b0-3" vertex="1">
          <mxGeometry x="46" y="120" width="10" height="200" as="geometry" />
        </mxCell>
        <mxCell id="7baba1c4bc27f4b0-4" value="&lt;span&gt;flink-runtime&lt;/span&gt;" style="shape=umlLifeline;perimeter=lifelinePerimeter;whiteSpace=wrap;html=1;container=1;collapsible=0;recursiveResize=0;outlineConnect=0;shadow=0;comic=0;labelBackgroundColor=none;strokeWidth=1;fontFamily=Verdana;fontSize=12;align=center;rounded=1;" parent="1" vertex="1">
          <mxGeometry x="881" y="80" width="100" height="360" as="geometry" />
        </mxCell>
        <mxCell id="7baba1c4bc27f4b0-8" value="java web" style="shape=umlLifeline;perimeter=lifelinePerimeter;whiteSpace=wrap;html=1;container=1;collapsible=0;recursiveResize=0;outlineConnect=0;shadow=0;comic=0;labelBackgroundColor=none;strokeWidth=1;fontFamily=Verdana;fontSize=12;align=center;rounded=1;" parent="1" vertex="1">
          <mxGeometry x="100" y="80" width="100" height="360" as="geometry" />
        </mxCell>
        <mxCell id="7baba1c4bc27f4b0-9" value="" style="html=1;points=[];perimeter=orthogonalPerimeter;shadow=0;comic=0;labelBackgroundColor=none;strokeWidth=1;fontFamily=Verdana;fontSize=12;align=center;rounded=1;" parent="7baba1c4bc27f4b0-8" vertex="1">
          <mxGeometry x="45" y="100" width="10" height="230" as="geometry" />
        </mxCell>
        <mxCell id="7baba1c4bc27f4b0-16" value="" style="html=1;points=[];perimeter=orthogonalPerimeter;shadow=0;comic=0;labelBackgroundColor=none;strokeWidth=1;fontFamily=Verdana;fontSize=12;align=center;rounded=1;" parent="1" vertex="1">
          <mxGeometry x="926" y="220" width="10" height="180" as="geometry" />
        </mxCell>
        <mxCell id="7baba1c4bc27f4b0-17" value="flink-table-api" style="html=1;verticalAlign=bottom;endArrow=block;labelBackgroundColor=none;fontFamily=Verdana;fontSize=12;edgeStyle=elbowEdgeStyle;elbow=vertical;" parent="1" source="7baba1c4bc27f4b0-13" target="7baba1c4bc27f4b0-16" edge="1">
          <mxGeometry relative="1" as="geometry">
            <mxPoint x="510" y="220" as="sourcePoint" />
            <Array as="points">
              <mxPoint x="680" y="220" />
            </Array>
          </mxGeometry>
        </mxCell>
        <mxCell id="7baba1c4bc27f4b0-11" value="Statement execute: show tables;" style="html=1;verticalAlign=bottom;endArrow=block;entryX=0;entryY=0;labelBackgroundColor=none;fontFamily=Verdana;fontSize=12;edgeStyle=elbowEdgeStyle;elbow=vertical;" parent="1" source="7baba1c4bc27f4b0-9" target="7baba1c4bc27f4b0-10" edge="1">
          <mxGeometry relative="1" as="geometry">
            <mxPoint x="220" y="190" as="sourcePoint" />
          </mxGeometry>
        </mxCell>
        <mxCell id="7baba1c4bc27f4b0-14" value="REST api" style="html=1;verticalAlign=bottom;endArrow=block;entryX=0;entryY=0;labelBackgroundColor=none;fontFamily=Verdana;fontSize=12;edgeStyle=elbowEdgeStyle;elbow=vertical;" parent="1" source="7baba1c4bc27f4b0-10" target="7baba1c4bc27f4b0-13" edge="1">
          <mxGeometry relative="1" as="geometry">
            <mxPoint x="370" y="200" as="sourcePoint" />
          </mxGeometry>
        </mxCell>
        <mxCell id="EA1oucC8A-jH3_OylsTL-1" value="" style="shape=umlActor;verticalLabelPosition=bottom;verticalAlign=top;html=1;outlineConnect=0;rounded=1;" vertex="1" parent="1">
          <mxGeometry x="135" y="4.5" width="30" height="60" as="geometry" />
        </mxCell>
        <mxCell id="EA1oucC8A-jH3_OylsTL-5" value="flink-cluster" style="swimlane;rounded=1;sketch=0;startSize=23;" vertex="1" parent="1">
          <mxGeometry x="594" y="40" width="440" height="400" as="geometry" />
        </mxCell>
        <mxCell id="EA1oucC8A-jH3_OylsTL-6" value="tableEnv&lt;br&gt;.listTables()" style="html=1;verticalAlign=bottom;endArrow=block;labelBackgroundColor=none;fontFamily=Verdana;fontSize=12;elbow=vertical;edgeStyle=orthogonalEdgeStyle;entryX=1;entryY=0.286;entryPerimeter=0;exitX=1.038;exitY=0.345;exitPerimeter=0;" edge="1" parent="EA1oucC8A-jH3_OylsTL-5">
          <mxGeometry relative="1" as="geometry">
            <mxPoint x="342.00333333333344" y="200" as="sourcePoint" />
            <mxPoint x="347.00333333333344" y="238.33333333333348" as="targetPoint" />
            <Array as="points">
              <mxPoint x="396.66999999999996" y="200" />
              <mxPoint x="396.66999999999996" y="238" />
            </Array>
          </mxGeometry>
        </mxCell>
        <mxCell id="EA1oucC8A-jH3_OylsTL-10" value="1）flink-sql-gateway做为外部插件，必须依赖于flink-runtime运行，flink-runtime可以Standalone模式运行，也可以连接至Flink on Yarn；&lt;br&gt;2）flink-sql-gateway本身提供rest服务，底层通过调用flink-table-api实现与flink集群的交互" style="shape=note;whiteSpace=wrap;html=1;backgroundOutline=1;darkOpacity=0.05;rounded=1;sketch=0;align=left;" vertex="1" parent="EA1oucC8A-jH3_OylsTL-5">
          <mxGeometry x="116" y="260" width="200" height="100" as="geometry" />
        </mxCell>
        <mxCell id="EA1oucC8A-jH3_OylsTL-7" value="return" style="html=1;verticalAlign=bottom;endArrow=open;dashed=1;endSize=8;labelBackgroundColor=none;fontFamily=Verdana;fontSize=12;edgeStyle=elbowEdgeStyle;elbow=vertical;rounded=0;entryX=1;entryY=0.4;entryDx=0;entryDy=0;entryPerimeter=0;" edge="1" parent="1" target="7baba1c4bc27f4b0-13">
          <mxGeometry relative="1" as="geometry">
            <mxPoint x="710" y="286" as="targetPoint" />
            <Array as="points">
              <mxPoint x="810" y="280" />
            </Array>
            <mxPoint x="930" y="280" as="sourcePoint" />
          </mxGeometry>
        </mxCell>
        <mxCell id="EA1oucC8A-jH3_OylsTL-8" value="REST result" style="html=1;verticalAlign=bottom;endArrow=open;dashed=1;endSize=8;labelBackgroundColor=none;fontFamily=Verdana;fontSize=12;edgeStyle=elbowEdgeStyle;elbow=vertical;rounded=0;entryX=1;entryY=0.4;entryDx=0;entryDy=0;entryPerimeter=0;" edge="1" parent="1">
          <mxGeometry relative="1" as="geometry">
            <mxPoint x="414" y="290" as="targetPoint" />
            <Array as="points">
              <mxPoint x="547" y="290" />
            </Array>
            <mxPoint x="667" y="290" as="sourcePoint" />
          </mxGeometry>
        </mxCell>
        <mxCell id="EA1oucC8A-jH3_OylsTL-9" value="ResultSet" style="html=1;verticalAlign=bottom;endArrow=open;dashed=1;endSize=8;labelBackgroundColor=none;fontFamily=Verdana;fontSize=12;edgeStyle=elbowEdgeStyle;elbow=vertical;rounded=0;entryX=1;entryY=0.4;entryDx=0;entryDy=0;entryPerimeter=0;" edge="1" parent="1">
          <mxGeometry relative="1" as="geometry">
            <mxPoint x="154" y="300" as="targetPoint" />
            <Array as="points">
              <mxPoint x="287" y="300" />
            </Array>
            <mxPoint x="407" y="300" as="sourcePoint" />
          </mxGeometry>
        </mxCell>
      </root>
    </mxGraphModel>
  </diagram>
</mxfile>
